<?xml version="1.0" standalone="no"?>
<!DOCTYPE svg PUBLIC "-//W3C//DTD SVG 20010904//EN"
 "http://www.w3.org/TR/2001/REC-SVG-20010904/DTD/svg10.dtd">
<svg version="1.0" xmlns="http://www.w3.org/2000/svg"
 width="320.000000pt" height="320.000000pt" viewBox="0 0 320.000000 320.000000"
 preserveAspectRatio="xMidYMid meet">

<g transform="translate(0.000000,320.000000) scale(0.100000,-0.100000)"
fill="#000000" stroke="none">
<path d="M570 2319 c-14 -6 -33 -8 -42 -5 -16 4 -18 -6 -18 -110 l0 -114 160
0 160 0 0 -490 0 -490 140 0 140 0 0 490 0 490 165 0 165 0 0 120 0 120 -422
-1 c-255 0 -433 -4 -448 -10z"/>
<path d="M2000 2324 c-115 -14 -290 -68 -290 -89 0 -8 52 -189 55 -193 2 -2
21 6 44 17 47 25 151 51 201 51 56 0 111 -20 142 -50 22 -23 28 -38 28 -72 0
-89 -63 -130 -212 -136 l-98 -4 0 -98 0 -98 103 -4 c86 -3 112 -8 153 -28 89
-46 117 -146 62 -223 -55 -77 -208 -92 -368 -37 -51 17 -93 30 -94 28 -2 -2
-14 -47 -29 -101 l-26 -99 54 -23 c92 -41 204 -58 334 -52 174 8 273 48 361
144 57 63 80 123 80 212 0 79 -24 138 -78 195 -38 40 -122 86 -157 86 -13 0 0
12 35 31 118 65 165 143 158 264 -4 86 -38 150 -106 202 -72 55 -236 90 -352
77z"/>
<path d="M788 1000 c19 -8 22 -17 22 -65 0 -30 5 -55 10 -55 6 0 10 26 10 59
0 54 2 60 23 64 12 2 -3 5 -33 5 -42 1 -50 -1 -32 -8z"/>
<path d="M982 943 l3 -68 38 -3 c21 -2 37 1 37 7 0 6 -13 11 -30 11 -25 0 -30
4 -30 24 0 19 6 26 28 29 l27 4 -28 2 c-23 1 -28 5 -25 24 2 15 10 22 25 22
12 0 25 3 29 8 4 4 -12 7 -35 7 l-42 0 3 -67z"/>
<path d="M1210 977 c19 -32 19 -33 0 -65 -22 -36 -11 -44 14 -9 l16 22 16 -22
c25 -35 36 -27 14 10 -19 32 -19 33 0 65 11 18 15 32 10 32 -5 0 -16 -12 -23
-27 l-14 -26 -18 26 c-25 39 -38 33 -15 -6z"/>
<path d="M1435 1000 c3 -5 14 -10 24 -10 14 0 18 -10 20 -57 3 -78 11 -81 11
-5 0 55 2 62 20 62 11 0 20 5 20 10 0 6 -23 10 -51 10 -31 0 -48 -4 -44 -10z"/>
<path d="M1690 945 c0 -37 4 -65 10 -65 6 0 10 28 10 65 0 37 -4 65 -10 65 -6
0 -10 -28 -10 -65z"/>
<path d="M1872 949 l-2 -67 30 -4 c17 -3 33 -1 36 4 3 4 -8 8 -25 8 -30 0 -30
0 -34 63 l-3 62 -2 -66z"/>
<path d="M2100 945 l0 -65 38 2 c36 1 36 1 5 5 -27 4 -33 9 -33 29 0 20 5 24
33 25 l32 1 -30 7 c-21 4 -30 12 -30 26 0 14 9 22 30 26 29 6 29 7 -7 8 l-38
1 0 -65z"/>
<path d="M2337 1003 c-17 -16 -5 -49 24 -66 38 -21 33 -40 -12 -47 -30 -5 -32
-7 -12 -13 58 -21 88 50 33 78 -35 18 -31 42 8 48 25 4 25 4 -4 6 -17 0 -34
-2 -37 -6z"/>
</g>
</svg>
