<?xml version="1.0" standalone="no"?>
<!DOCTYPE svg PUBLIC "-//W3C//DTD SVG 20010904//EN"
 "http://www.w3.org/TR/2001/REC-SVG-20010904/DTD/svg10.dtd">
<svg version="1.0" xmlns="http://www.w3.org/2000/svg"
 width="996.000000pt" height="250.000000pt" viewBox="0 0 996.000000 250.000000"
 preserveAspectRatio="xMidYMid meet">

<g transform="translate(0.000000,250.000000) scale(0.100000,-0.100000)"
fill="#000000" stroke="none">
<path d="M440 1970 l0 -50 75 0 75 0 0 -235 0 -235 65 0 65 0 2 233 3 232 78
3 77 3 0 49 0 50 -220 0 -220 0 0 -50z"/>
<path d="M1070 1993 c-25 -8 -46 -16 -47 -17 -2 -2 4 -23 13 -49 l15 -45 34
14 c51 21 121 18 145 -6 11 -11 20 -24 20 -29 0 -40 -47 -71 -110 -71 l-40 0
0 -45 c0 -45 0 -45 35 -45 39 0 105 -24 117 -43 14 -22 8 -67 -12 -87 -25 -25
-122 -28 -175 -6 -38 16 -36 18 -50 -52 -6 -30 -4 -33 32 -49 54 -23 196 -23
243 1 114 59 142 164 64 241 -19 19 -42 35 -52 35 -11 0 -5 10 20 30 83 69 69
184 -29 225 -46 19 -165 19 -223 -2z"/>
<path d="M370 1255 l0 -25 4630 0 4630 0 0 25 0 25 -4630 0 -4630 0 0 -25z"/>
<path d="M424 1046 c-3 -8 -4 -23 -2 -33 3 -15 16 -18 91 -21 l87 -3 0 -254 0
-255 35 0 35 0 0 255 0 255 90 0 90 0 0 35 0 35 -210 0 c-174 0 -212 -2 -216
-14z"/>
<path d="M1485 1048 c-3 -7 -4 -137 -3 -288 l3 -275 160 0 160 0 0 30 0 30
-122 3 -123 3 0 99 0 100 110 0 110 0 0 30 0 30 -110 0 -110 0 0 90 0 89 118
3 117 3 0 30 0 30 -153 3 c-117 2 -154 0 -157 -10z"/>
<path d="M2443 1053 c2 -4 39 -67 81 -139 42 -72 76 -135 76 -141 0 -5 -36
-70 -80 -143 -44 -73 -80 -137 -80 -141 0 -15 67 -10 79 5 6 7 38 62 70 121
58 106 59 107 74 84 8 -13 40 -68 71 -122 l57 -97 41 0 c29 0 39 4 35 13 -3 8
-42 74 -87 147 -45 73 -79 137 -77 144 3 6 41 70 85 141 l81 130 -30 3 c-17 2
-37 1 -44 -2 -13 -5 -81 -115 -118 -189 -10 -22 -21 -36 -24 -33 -3 3 -34 54
-67 113 l-62 108 -43 3 c-23 2 -41 0 -38 -5z"/>
<path d="M3474 1046 c-3 -8 -4 -23 -2 -33 3 -15 16 -18 91 -21 l87 -3 0 -254
0 -255 35 0 35 0 0 255 0 255 90 0 90 0 0 35 0 35 -210 0 c-174 0 -212 -2
-216 -14z"/>
<path d="M4535 1047 c-3 -7 -4 -136 -3 -287 l3 -275 35 0 35 0 3 288 2 287
-35 0 c-20 0 -38 -6 -40 -13z"/>
<path d="M5305 1047 c-3 -7 -4 -136 -3 -287 l3 -275 160 0 160 0 0 30 0 30
-122 3 -123 3 0 254 0 255 -35 0 c-20 0 -38 -6 -40 -13z"/>
<path d="M6280 770 l0 -290 160 0 160 0 0 35 0 35 -125 0 -125 0 0 100 0 100
115 0 115 0 0 30 0 29 -112 3 -113 3 -3 88 -3 87 121 0 120 0 0 35 0 35 -155
0 -155 0 0 -290z"/>
<path d="M7345 1046 c-42 -18 -83 -69 -91 -111 -14 -75 41 -148 139 -183 27
-9 64 -30 83 -45 29 -24 34 -35 34 -71 0 -32 -6 -48 -25 -66 -33 -31 -116 -39
-180 -17 -48 17 -50 16 -57 -27 -7 -47 173 -63 252 -23 60 30 92 85 87 148 -6
68 -35 102 -125 146 -42 20 -89 48 -104 62 -37 33 -38 82 -2 118 23 23 31 25
92 21 37 -3 74 -8 83 -12 12 -5 18 0 23 20 4 15 2 32 -4 38 -17 17 -169 19
-205 2z"/>
</g>
</svg>
